<svg width="24" height="24" viewBox="0 0 24 24" fill="none" xmlns="http://www.w3.org/2000/svg">
<path opacity="0.4" d="M16.8843 5.11485H13.9413C13.2081 5.11969 12.512 4.79355 12.0474 4.22751L11.0782 2.88762C10.6214 2.31661 9.9253 1.98894 9.19321 2.00028H7.11261C3.37819 2.00028 2.00001 4.19201 2.00001 7.91884V11.9474C1.99536 12.3904 21.9956 12.3898 21.9969 11.9474V10.7761C22.0147 7.04924 20.6721 5.11485 16.8843 5.11485Z" fill="#757B8C"/>
<path fill-rule="evenodd" clip-rule="evenodd" d="M20.8321 6.54378C21.1521 6.91786 21.3993 7.34817 21.5612 7.81267C21.8798 8.76736 22.0273 9.77061 21.9969 10.7764V16.0294C21.9956 16.4719 21.963 16.9137 21.8991 17.3516C21.7775 18.1243 21.5057 18.8658 21.0989 19.5344C20.9119 19.8574 20.6849 20.1555 20.4231 20.4218C19.2383 21.5092 17.665 22.0752 16.0574 21.9924H7.93061C6.32049 22.0746 4.74462 21.5088 3.55601 20.4218C3.2974 20.155 3.07337 19.8569 2.88915 19.5344C2.48475 18.8663 2.21869 18.1241 2.1067 17.3516C2.03549 16.9144 1.99981 16.4723 2 16.0294V10.7764C1.99983 10.3377 2.02357 9.89927 2.07113 9.46312C2.08113 9.3866 2.09614 9.31133 2.11098 9.23684C2.13573 9.11265 2.16005 8.99063 2.16005 8.86861C2.25031 8.34228 2.41496 7.83141 2.64908 7.35126C3.34261 5.8694 4.76525 5.11516 7.09481 5.11516H16.8754C18.1802 5.01425 19.4753 5.40705 20.5032 6.21546C20.6215 6.31584 20.7316 6.42564 20.8321 6.54378ZM6.97033 15.5414H17.0355H17.0533C17.2741 15.551 17.4896 15.4719 17.6517 15.3219C17.8137 15.1718 17.9088 14.9633 17.9157 14.7428C17.9282 14.549 17.8644 14.358 17.7379 14.2104C17.5924 14.0121 17.3618 13.8937 17.1155 13.8909H6.97033C6.51365 13.8909 6.14343 14.2604 6.14343 14.7162C6.14343 15.1719 6.51365 15.5414 6.97033 15.5414Z" fill="#757B8C"/>
</svg>
