<svg width="37" height="22" viewBox="0 0 37 22" fill="none" xmlns="http://www.w3.org/2000/svg">
<rect x="0.25" y="0.265625" width="36.5" height="20.5" rx="4.75" fill="#282C38"/>
<path d="M7.84801 16.2443C9.04119 16.2443 10.0107 15.2749 10.0156 14.0866V12.9332H12.0142V14.0866C12.0092 15.2749 12.9787 16.2443 14.1719 16.2443C15.3601 16.2443 16.3295 15.2749 16.3295 14.0866C16.3295 12.8935 15.3601 11.924 14.1719 11.919H13.0284V9.92045H14.1719C15.3601 9.92543 16.3295 8.95597 16.3295 7.76278C16.3295 6.57457 15.3601 5.60511 14.1719 5.60511C12.9787 5.60511 12.0092 6.57457 12.0142 7.76278V8.90625H10.0156V7.76278C10.0107 6.57457 9.04119 5.60511 7.84801 5.60511C6.6598 5.60511 5.69034 6.57457 5.69034 7.76278C5.69034 8.95597 6.6598 9.92543 7.84801 9.92045H9.00142V11.919H7.84801C6.6598 11.924 5.69034 12.8935 5.69034 14.0866C5.69034 15.2749 6.6598 16.2443 7.84801 16.2443ZM7.84801 15.2301C7.21662 15.2301 6.70455 14.718 6.70455 14.0866C6.70455 13.4503 7.21662 12.9382 7.84801 12.9332H9.00142V14.0866C8.99645 14.718 8.48438 15.2301 7.84801 15.2301ZM7.84801 8.90625C7.21662 8.91122 6.70455 8.39915 6.70455 7.76278C6.70455 7.13139 7.21662 6.61932 7.84801 6.61932C8.48438 6.61932 8.99645 7.13139 9.00142 7.76278V8.90625H7.84801ZM14.1719 15.2301C13.5355 15.2301 13.0234 14.718 13.0284 14.0866V12.9332H14.1719C14.8033 12.9382 15.3153 13.4503 15.3153 14.0866C15.3153 14.718 14.8033 15.2301 14.1719 15.2301ZM13.0284 8.90625V7.76278C13.0234 7.13139 13.5355 6.61932 14.1719 6.61932C14.8033 6.61932 15.3153 7.13139 15.3153 7.76278C15.3153 8.39915 14.8033 8.91122 14.1719 8.90625H13.0284ZM10.0156 11.919V9.92045H12.0142V11.919H10.0156ZM23.1841 16.0156H24.4171V11.4616H29.8461V16.0156H31.079V5.83381H29.8461V10.3679H24.4171V5.83381H23.1841V16.0156Z" fill="#757B8C"/>
<rect x="0.25" y="0.265625" width="36.5" height="20.5" rx="4.75" stroke="#3C4254" stroke-width="0.5"/>
</svg>
