<svg width="112" height="24" viewBox="0 0 112 24" fill="none" xmlns="http://www.w3.org/2000/svg">
<path d="M5.2228 8.63959L0 5.73307L8.86482 0.434296C9.83638 -0.146436 11.0537 -0.14464 12.0235 0.438958L19.5366 4.96009C20.4453 5.50693 21 6.48303 21 7.53531V15.7356C21 16.8076 20.4245 17.799 19.4885 18.3391L12.068 22.6217C11.1309 23.1625 9.97384 23.1695 9.03013 22.6401L0 17.5745V11.6538L10.4456 17.5745L15.6684 14.5603V8.63959L10.4456 5.73307L5.2228 8.63959Z" fill="white"/>
<path d="M5.22266 14.6136V8.63992L10.4455 5.7334L15.6683 8.63992V14.5606L10.4455 17.5748L5.22266 14.6136Z" fill="#5816BE"/>
<path d="M5.22266 8.63965L10.4455 11.6538V17.5745L5.22266 14.6104V8.63965Z" fill="#360F80"/>
<path d="M10.4455 11.6541L15.6683 8.63992L10.4455 5.7334L5.22266 8.63992L10.4455 11.6541Z" fill="#7D1AFF"/>
<path d="M31 17.2779V5.5166H35.2669C36.3337 5.5166 37.2603 5.67575 38.0469 5.99406C38.8443 6.30175 39.5069 6.72615 40.0349 7.26726C40.5737 7.79777 40.9724 8.40254 41.231 9.08159C41.5003 9.76063 41.635 10.4662 41.635 11.1983V11.5484C41.635 12.2487 41.5003 12.9384 41.231 13.6174C40.9724 14.2964 40.5737 14.9118 40.0349 15.4636C39.5069 16.0153 38.8443 16.4556 38.0469 16.7845C37.2603 17.1134 36.3337 17.2779 35.2669 17.2779H31ZM35.4124 7.6174H33.2951V15.1771H35.4124C36.2205 15.1771 36.9155 15.0179 37.4974 14.6996C38.0792 14.3707 38.5264 13.9198 38.8389 13.3468C39.1514 12.7739 39.3076 12.1161 39.3076 11.3734C39.3076 10.2169 38.9628 9.3044 38.2732 8.63596C37.5836 7.95692 36.63 7.6174 35.4124 7.6174Z" fill="white"/>
<path d="M46.0015 17.437C45.0317 17.437 44.2559 17.193 43.674 16.7049C43.103 16.2169 42.8174 15.5325 42.8174 14.6519C42.8174 13.7076 43.1622 13.0126 43.8518 12.567C44.5522 12.1108 45.4896 11.8826 46.6641 11.8826H48.4582V11.8031C48.4582 10.8163 47.9518 10.323 46.9389 10.323C46.6695 10.323 46.3463 10.3283 45.9691 10.3389C45.592 10.3495 45.2095 10.3654 44.8216 10.3866C44.4445 10.3972 44.105 10.4132 43.8033 10.4344V8.55639C44.1697 8.52456 44.6061 8.49803 45.1125 8.47681C45.6297 8.45559 46.1038 8.44498 46.5348 8.44498C47.8817 8.44498 48.8946 8.71554 49.5734 9.25665C50.263 9.78716 50.6078 10.6519 50.6078 11.8508V17.2142H48.8299V15.559C48.4312 16.811 47.4884 17.437 46.0015 17.437ZM46.6318 15.8614C46.9335 15.8614 47.219 15.8084 47.4884 15.7023C47.7578 15.5856 47.9787 15.3946 48.1511 15.1293C48.3343 14.8535 48.4366 14.4821 48.4582 14.0153V13.2036H46.6318C46.1146 13.2036 45.7159 13.3309 45.4358 13.5856C45.1664 13.8296 45.0317 14.1479 45.0317 14.5405C45.0317 14.9437 45.1664 15.2673 45.4358 15.5113C45.7159 15.7447 46.1146 15.8614 46.6318 15.8614Z" fill="white"/>
<path d="M56.1983 17.4848C54.9915 17.4848 54.0433 17.2354 53.3537 16.7368C52.6749 16.2275 52.3193 15.5272 52.287 14.636H54.3073C54.3288 14.9437 54.4905 15.2195 54.7922 15.4636C55.1047 15.697 55.5841 15.8137 56.2307 15.8137C56.7586 15.8137 57.1842 15.7182 57.5075 15.5272C57.8308 15.3362 57.9924 15.0763 57.9924 14.7474C57.9924 14.4609 57.8685 14.2381 57.6206 14.0789C57.3836 13.9092 56.9741 13.7925 56.3923 13.7288L55.6165 13.6492C54.6252 13.5431 53.8655 13.2673 53.3375 12.8216C52.8203 12.376 52.5617 11.7819 52.5617 11.0391C52.5617 10.4556 52.7126 9.96222 53.0143 9.55904C53.316 9.14525 53.7308 8.83756 54.2588 8.63596C54.7976 8.42376 55.4117 8.31766 56.1014 8.31766C57.1789 8.31766 58.0516 8.55639 58.7197 9.03384C59.3878 9.50069 59.7379 10.1797 59.7703 11.071H57.7499C57.7176 10.7739 57.5614 10.5193 57.2812 10.3071C57.0118 10.0949 56.6132 9.98875 56.0852 9.98875C55.6111 9.98875 55.2447 10.0789 54.9861 10.2593C54.7275 10.4397 54.5982 10.6731 54.5982 10.9596C54.5982 11.2354 54.7006 11.4476 54.9053 11.5962C55.11 11.7447 55.4548 11.8455 55.9397 11.8986L56.7155 11.9781C57.7392 12.0842 58.5473 12.3654 59.1399 12.8216C59.7326 13.2779 60.0289 13.8933 60.0289 14.6678C60.0289 15.2407 59.8672 15.7394 59.544 16.1638C59.2315 16.5776 58.7897 16.9012 58.2187 17.1346C57.6476 17.3681 56.9741 17.4848 56.1983 17.4848Z" fill="white"/>
<path d="M61.8848 17.2142V5.59618H64.1314V10.0206C64.3577 9.46886 64.6917 9.04445 65.1335 8.74737C65.5753 8.45029 66.1302 8.30175 66.7982 8.30175H66.8952C67.8973 8.30175 68.657 8.64657 69.1742 9.33623C69.6914 10.0153 69.95 10.9967 69.95 12.2805V17.2142H67.7034V12.0736C67.7034 11.5219 67.5417 11.0869 67.2185 10.7686C66.906 10.4503 66.4912 10.2911 65.974 10.2911C65.4136 10.2911 64.9665 10.4715 64.6325 10.8323C64.2984 11.1824 64.1314 11.6439 64.1314 12.2169V17.2142H61.8848Z" fill="white"/>
<path d="M76.2605 17.5166C75.4954 17.5166 74.8328 17.3893 74.2725 17.1346C73.7122 16.88 73.2488 16.5405 72.8825 16.1161C72.5161 15.6917 72.2414 15.2142 72.0582 14.6837C71.875 14.1532 71.7834 13.6121 71.7834 13.0604V12.758C71.7834 12.185 71.875 11.6333 72.0582 11.1028C72.2521 10.5617 72.5323 10.0789 72.8986 9.65453C73.2758 9.23013 73.7391 8.89591 74.2886 8.65188C74.8489 8.39724 75.5008 8.26992 76.2443 8.26992C77.0093 8.26992 77.6882 8.41846 78.2808 8.71554C78.8842 9.00201 79.3637 9.4052 79.7193 9.92509C80.0856 10.445 80.2957 11.0498 80.3496 11.7394H78.1677C78.103 11.2938 77.9091 10.9224 77.5858 10.6254C77.2626 10.3283 76.8154 10.1797 76.2443 10.1797C75.4901 10.1797 74.9297 10.4344 74.5634 10.9437C74.2078 11.4529 74.03 12.1055 74.03 12.9012C74.03 13.6758 74.2024 14.323 74.5472 14.8429C74.9028 15.3521 75.4739 15.6068 76.2605 15.6068C76.8423 15.6068 77.3003 15.4582 77.6343 15.1612C77.9791 14.8641 78.1838 14.4768 78.2485 13.9994H80.4304C80.3873 14.6996 80.1772 15.315 79.8001 15.8455C79.4337 16.376 78.9435 16.7898 78.3293 17.0869C77.7151 17.3734 77.0255 17.5166 76.2605 17.5166Z" fill="white"/>
<path d="M85.2203 17.4848C84.2074 17.4848 83.4208 17.1612 82.8605 16.5139C82.311 15.8561 82.0362 14.8747 82.0362 13.5697V8.55639H84.2828V13.7606C84.2828 14.3017 84.4337 14.7261 84.7354 15.0338C85.0371 15.3415 85.4465 15.4954 85.9637 15.4954C86.4809 15.4954 86.9012 15.3309 87.2244 15.002C87.5585 14.6731 87.7255 14.2275 87.7255 13.6651V8.55639H89.9721V17.2142H88.1942V15.2089C87.8171 16.7262 86.8581 17.4848 85.3172 17.4848H85.2203Z" fill="white"/>
<path d="M97.7087 17.5007C96.9113 17.5007 96.2163 17.315 95.6237 16.9437C95.0418 16.5723 94.6108 16.0418 94.3307 15.3521V17.2142H92.5528V5.59618H94.7994V9.97283C95.1227 9.42111 95.5429 9.00732 96.0601 8.73146C96.5881 8.44498 97.1861 8.30175 97.8541 8.30175C98.6623 8.30175 99.368 8.49803 99.9714 8.89061C100.575 9.27257 101.044 9.79777 101.378 10.4662C101.712 11.124 101.879 11.8667 101.879 12.6943V13.0285C101.879 13.8667 101.706 14.6254 101.361 15.3044C101.017 15.9728 100.532 16.5086 99.9068 16.9118C99.2926 17.3044 98.5599 17.5007 97.7087 17.5007ZM97.2076 15.6386C97.9296 15.6386 98.5114 15.384 98.9532 14.8747C99.4058 14.3548 99.632 13.6864 99.632 12.8694C99.632 12.0524 99.4058 11.3999 98.9532 10.9118C98.5114 10.4132 97.9296 10.1638 97.2076 10.1638C96.7659 10.1638 96.3564 10.2646 95.9793 10.4662C95.6021 10.6572 95.3004 10.9384 95.0742 11.3097C94.8479 11.6704 94.7348 12.1108 94.7348 12.6307V13.2673C94.7348 13.7659 94.8533 14.1956 95.0903 14.5564C95.3274 14.9065 95.6345 15.1771 96.0116 15.3681C96.3887 15.5484 96.7874 15.6386 97.2076 15.6386Z" fill="white"/>
<path d="M107.782 17.5166C107.027 17.5166 106.365 17.3893 105.794 17.1346C105.233 16.88 104.765 16.5405 104.387 16.1161C104.021 15.6811 103.741 15.1983 103.547 14.6678C103.364 14.1373 103.272 13.5962 103.272 13.0445V12.7421C103.272 12.1691 103.364 11.6174 103.547 11.0869C103.741 10.5564 104.021 10.0789 104.387 9.65453C104.765 9.23013 105.228 8.89591 105.777 8.65188C106.327 8.39724 106.963 8.26992 107.685 8.26992C108.633 8.26992 109.425 8.47681 110.06 8.89061C110.696 9.29379 111.176 9.8296 111.499 10.498C111.833 11.1559 112 11.8667 112 12.6307V13.4264H105.406C105.481 14.1055 105.707 14.6519 106.084 15.0657C106.472 15.4795 107.038 15.6864 107.782 15.6864C108.32 15.6864 108.762 15.5803 109.107 15.3681C109.462 15.1452 109.689 14.8747 109.786 14.5564H111.855C111.661 15.4476 111.203 16.1638 110.481 16.7049C109.759 17.246 108.859 17.5166 107.782 17.5166ZM107.685 10.1002C107.049 10.1002 106.542 10.2752 106.165 10.6254C105.788 10.9755 105.546 11.4582 105.438 12.0736H109.85C109.764 11.4582 109.538 10.9755 109.172 10.6254C108.816 10.2752 108.32 10.1002 107.685 10.1002Z" fill="white"/>
</svg>
