<svg width="268" height="154" viewBox="0 0 268 154" fill="none" xmlns="http://www.w3.org/2000/svg">
<rect width="268" height="154" rx="10" fill="#246CF9"/>
<mask id="mask0_756_6947" style="mask-type:alpha" maskUnits="userSpaceOnUse" x="0" y="0" width="268" height="154">
<rect width="268" height="154" rx="10" fill="#246CF9"/>
</mask>
<g mask="url(#mask0_756_6947)">
<path d="M33.124 20.2889L29.659 30.4452C29.659 30.4452 29.4599 29.5807 29.3768 29.042C27.4036 24.6211 24.2031 22.9998 24.2031 22.9998L27.2413 34.5498H31.414L37.174 20.2861L33.124 20.2889ZM36.4254 34.5511H40.2095L42.5004 20.2875H38.6699L36.4254 34.5511Z" fill="white"/>
<path d="M29.2018 28.1955L27.9268 21.7236C27.9268 21.7236 27.3514 20.3191 25.8555 20.3191C24.3582 20.3191 20 20.3191 20 20.3191C20 20.3191 27.4645 22.5991 29.2018 28.1955ZM47.8686 24.3732C47.8686 23.5468 48.5245 22.9305 50.4077 22.9305C51.6309 22.9305 53.0327 23.8523 53.0327 23.8523L53.645 20.6995C53.645 20.6995 51.8518 20 50.0995 20C46.1177 20 44.0627 21.9691 44.0627 24.4618C44.0627 28.9673 49.3114 28.3523 49.3114 30.6691C49.3114 31.0618 49.0045 31.9809 46.82 31.9809C44.63 31.9809 43.1859 31.1477 43.1859 31.1477L42.5314 34.1709C42.5314 34.1709 43.9332 35 46.6455 35C49.3577 35 53.1214 32.9014 53.1214 29.8823C53.12 26.2536 47.8686 25.9905 47.8686 24.3732ZM63.2109 20.2891H59.2291L53.0164 34.5527H56.7745L57.5532 32.5168H62.2905L62.6982 34.5527H66.1414L63.2109 20.2891ZM58.6045 29.7895L60.665 24.3991L61.745 29.7895H58.6045Z" fill="white"/>
<g opacity="0.1">
<path d="M333.604 83.4548C356.968 138.424 390.43 122.197 404.241 107.212L243.992 325.793C215.989 292.084 159.256 193.756 156.348 70.113C152.713 -84.4409 304.399 14.7429 333.604 83.4548Z" stroke="white"/>
<path d="M313.19 97.3185C331.824 141.246 358.561 128.257 369.6 116.272L241.491 291.073C219.14 264.143 173.875 185.574 171.615 86.744C168.79 -36.7941 289.898 42.4098 313.19 97.3185Z" stroke="white"/>
<path d="M291.749 111.749C305.36 144.191 325.089 134.514 333.252 125.62L238.424 255.25C222.031 235.389 188.895 177.395 187.49 104.3C185.735 12.932 274.736 71.197 291.749 111.749Z" stroke="white"/>
<path d="M285.331 119.042C303.68 135.772 293.559 149.462 298.752 143.821L241.591 230.765C231.084 218.098 204.242 168.639 203.196 122.141C201.889 64.018 247.74 84.7712 285.331 119.042Z" stroke="white"/>
</g>
<path d="M234 106C232.161 106 230.341 106.362 228.642 107.066C226.944 107.769 225.401 108.8 224.101 110.101C222.8 111.401 221.769 112.944 221.066 114.642C220.362 116.341 220 118.161 220 120C220 121.839 220.362 123.659 221.066 125.358C221.769 127.056 222.8 128.599 224.101 129.899C225.401 131.2 226.944 132.231 228.642 132.934C230.341 133.638 232.161 134 234 134C235.839 134 237.659 133.638 239.358 132.934C241.056 132.231 242.599 131.2 243.899 129.899C245.2 128.599 246.231 127.056 246.934 125.358C247.638 123.659 248 121.839 248 120C248 118.161 247.638 116.341 246.934 114.642C246.231 112.944 245.2 111.401 243.899 110.101C242.599 108.8 241.056 107.769 239.358 107.066C237.659 106.362 235.839 106 234 106Z" fill="#FF9800"/>
<path d="M218 106C216.161 106 214.341 106.362 212.642 107.066C210.944 107.769 209.401 108.8 208.101 110.101C206.8 111.401 205.769 112.944 205.066 114.642C204.362 116.341 204 118.161 204 120C204 121.839 204.362 123.659 205.066 125.358C205.769 127.056 206.8 128.599 208.101 129.899C209.401 131.2 210.944 132.231 212.642 132.934C214.341 133.638 216.161 134 218 134C219.839 134 221.659 133.638 223.358 132.934C225.056 132.231 226.599 131.2 227.899 129.899C229.2 128.599 230.231 127.056 230.934 125.358C231.638 123.659 232 121.839 232 120C232 118.161 231.638 116.341 230.934 114.642C230.231 112.944 229.2 111.401 227.899 110.101C226.599 108.8 225.056 107.769 223.358 107.066C221.659 106.362 219.839 106 218 106Z" fill="#D50000"/>
<path d="M220 120C220 124.755 222.376 128.95 226 131.48C229.624 128.95 232 124.755 232 120C232 115.245 229.624 111.05 226 108.52C222.376 111.05 220 115.245 220 120Z" fill="#FF3D00"/>
</g>
<path d="M24.5241 131.169C23.7386 131.166 23.0675 130.959 22.5107 130.548C21.9538 130.137 21.5279 129.538 21.233 128.753C20.938 127.967 20.7905 127.021 20.7905 125.914C20.7905 124.81 20.938 123.867 21.233 123.085C21.5313 122.303 21.9588 121.706 22.5156 121.295C23.0758 120.884 23.7453 120.679 24.5241 120.679C25.303 120.679 25.9709 120.886 26.5277 121.3C27.0845 121.711 27.5104 122.308 27.8054 123.09C28.1037 123.869 28.2528 124.81 28.2528 125.914C28.2528 127.024 28.1054 127.972 27.8104 128.758C27.5154 129.54 27.0895 130.138 26.5327 130.553C25.9759 130.964 25.3063 131.169 24.5241 131.169ZM24.5241 129.842C25.2135 129.842 25.7521 129.505 26.1399 128.832C26.531 128.16 26.7266 127.187 26.7266 125.914C26.7266 125.069 26.6371 124.355 26.4581 123.771C26.2824 123.185 26.0289 122.741 25.6974 122.439C25.3693 122.134 24.9782 121.982 24.5241 121.982C23.8381 121.982 23.2995 122.32 22.9084 122.996C22.5173 123.672 22.3201 124.645 22.3168 125.914C22.3168 126.763 22.4046 127.48 22.5803 128.067C22.7592 128.65 23.0128 129.093 23.3409 129.394C23.669 129.692 24.0634 129.842 24.5241 129.842ZM33.5712 131.139C33.1171 131.133 32.6697 131.05 32.2289 130.891C31.7914 130.732 31.3936 130.466 31.0357 130.095C30.6777 129.724 30.391 129.225 30.1756 128.599C29.9635 127.972 29.8574 127.19 29.8574 126.252C29.8574 125.364 29.9453 124.575 30.1209 123.886C30.2999 123.196 30.5568 122.615 30.8915 122.141C31.2263 121.663 31.6306 121.3 32.1046 121.052C32.5785 120.803 33.1105 120.679 33.7005 120.679C34.307 120.679 34.8456 120.798 35.3162 121.037C35.7869 121.276 36.168 121.605 36.4597 122.026C36.7547 122.447 36.9419 122.926 37.0215 123.463H35.5051C35.4024 123.039 35.1986 122.692 34.8936 122.424C34.5887 122.156 34.191 122.021 33.7005 122.021C32.9547 122.021 32.373 122.346 31.9554 122.996C31.5411 123.645 31.3323 124.549 31.329 125.705H31.4036C31.5792 125.417 31.7947 125.172 32.0499 124.969C32.3084 124.764 32.5968 124.607 32.915 124.497C33.2364 124.384 33.5745 124.328 33.9292 124.328C34.5191 124.328 35.0527 124.472 35.53 124.761C36.0106 125.046 36.3934 125.44 36.6784 125.944C36.9635 126.448 37.106 127.024 37.106 127.674C37.106 128.324 36.9585 128.912 36.6635 129.439C36.3719 129.966 35.9609 130.384 35.4306 130.692C34.9003 130.997 34.2805 131.146 33.5712 131.139ZM33.5662 129.847C33.9573 129.847 34.307 129.75 34.6152 129.558C34.9235 129.366 35.1671 129.107 35.3461 128.783C35.525 128.458 35.6145 128.095 35.6145 127.694C35.6145 127.303 35.5267 126.946 35.351 126.625C35.1787 126.304 34.94 126.048 34.6351 125.859C34.3335 125.67 33.9888 125.576 33.601 125.576C33.306 125.576 33.0326 125.632 32.7807 125.745C32.5321 125.858 32.3134 126.013 32.1245 126.212C31.9355 126.411 31.7864 126.64 31.677 126.898C31.571 127.154 31.5179 127.424 31.5179 127.709C31.5179 128.09 31.6058 128.443 31.7814 128.768C31.9604 129.093 32.204 129.354 32.5123 129.553C32.8238 129.749 33.1751 129.847 33.5662 129.847ZM42.8146 120.341L39.5334 132.531H38.206L41.4872 120.341H42.8146ZM44.0575 131V129.886L47.5028 126.317C47.8707 125.929 48.174 125.589 48.4126 125.298C48.6546 125.003 48.8352 124.723 48.9545 124.457C49.0739 124.192 49.1335 123.911 49.1335 123.612C49.1335 123.274 49.054 122.982 48.8949 122.737C48.7358 122.489 48.5187 122.298 48.2436 122.165C47.9685 122.03 47.6586 121.962 47.3139 121.962C46.9493 121.962 46.6312 122.036 46.3594 122.185C46.0876 122.335 45.8788 122.545 45.733 122.817C45.5871 123.089 45.5142 123.407 45.5142 123.771H44.0476C44.0476 123.152 44.1901 122.61 44.4751 122.146C44.7602 121.682 45.1513 121.322 45.6484 121.067C46.1456 120.808 46.7107 120.679 47.3438 120.679C47.9834 120.679 48.5469 120.807 49.0341 121.062C49.5246 121.314 49.9074 121.658 50.1825 122.096C50.4576 122.53 50.5952 123.021 50.5952 123.567C50.5952 123.945 50.5239 124.315 50.3814 124.676C50.2422 125.037 49.9986 125.44 49.6506 125.884C49.3026 126.325 48.8187 126.86 48.1989 127.49L46.1754 129.608V129.683H50.7592V131H44.0575ZM56.1982 131.139C55.7441 131.133 55.2966 131.05 54.8558 130.891C54.4183 130.732 54.0206 130.466 53.6626 130.095C53.3047 129.724 53.018 129.225 52.8026 128.599C52.5904 127.972 52.4844 127.19 52.4844 126.252C52.4844 125.364 52.5722 124.575 52.7479 123.886C52.9268 123.196 53.1837 122.615 53.5185 122.141C53.8532 121.663 54.2576 121.3 54.7315 121.052C55.2055 120.803 55.7375 120.679 56.3274 120.679C56.9339 120.679 57.4725 120.798 57.9432 121.037C58.4138 121.276 58.795 121.605 59.0866 122.026C59.3816 122.447 59.5689 122.926 59.6484 123.463H58.1321C58.0294 123.039 57.8255 122.692 57.5206 122.424C57.2157 122.156 56.8179 122.021 56.3274 122.021C55.5817 122.021 55 122.346 54.5824 122.996C54.1681 123.645 53.9593 124.549 53.956 125.705H54.0305C54.2062 125.417 54.4216 125.172 54.6768 124.969C54.9354 124.764 55.2237 124.607 55.5419 124.497C55.8634 124.384 56.2015 124.328 56.5561 124.328C57.1461 124.328 57.6797 124.472 58.157 124.761C58.6375 125.046 59.0204 125.44 59.3054 125.944C59.5904 126.448 59.733 127.024 59.733 127.674C59.733 128.324 59.5855 128.912 59.2905 129.439C58.9988 129.966 58.5878 130.384 58.0575 130.692C57.5272 130.997 56.9074 131.146 56.1982 131.139ZM56.1932 129.847C56.5843 129.847 56.9339 129.75 57.2422 129.558C57.5504 129.366 57.794 129.107 57.973 128.783C58.152 128.458 58.2415 128.095 58.2415 127.694C58.2415 127.303 58.1536 126.946 57.978 126.625C57.8056 126.304 57.567 126.048 57.2621 125.859C56.9605 125.67 56.6158 125.576 56.228 125.576C55.933 125.576 55.6596 125.632 55.4077 125.745C55.1591 125.858 54.9403 126.013 54.7514 126.212C54.5625 126.411 54.4134 126.64 54.304 126.898C54.1979 127.154 54.1449 127.424 54.1449 127.709C54.1449 128.09 54.2327 128.443 54.4084 128.768C54.5874 129.093 54.831 129.354 55.1392 129.553C55.4508 129.749 55.8021 129.847 56.1932 129.847Z" fill="white"/>
<path d="M34.7088 83.1307C34.3078 83.1307 33.9415 83.0329 33.6101 82.8374C33.2786 82.6385 33.0135 82.3733 32.8146 82.0419C32.6191 81.7105 32.5213 81.3442 32.5213 80.9432C32.5213 80.5388 32.6191 80.1726 32.8146 79.8445C33.0135 79.513 33.2786 79.2495 33.6101 79.054C33.9415 78.8551 34.3078 78.7557 34.7088 78.7557C35.1132 78.7557 35.4794 78.8551 35.8075 79.054C36.139 79.2495 36.4025 79.513 36.598 79.8445C36.7969 80.1726 36.8963 80.5388 36.8963 80.9432C36.8963 81.3442 36.7969 81.7105 36.598 82.0419C36.4025 82.3733 36.139 82.6385 35.8075 82.8374C35.4794 83.0329 35.1132 83.1307 34.7088 83.1307ZM43.379 83.1307C42.9779 83.1307 42.6117 83.0329 42.2802 82.8374C41.9488 82.6385 41.6837 82.3733 41.4848 82.0419C41.2892 81.7105 41.1915 81.3442 41.1915 80.9432C41.1915 80.5388 41.2892 80.1726 41.4848 79.8445C41.6837 79.513 41.9488 79.2495 42.2802 79.054C42.6117 78.8551 42.9779 78.7557 43.379 78.7557C43.7833 78.7557 44.1496 78.8551 44.4777 79.054C44.8091 79.2495 45.0726 79.513 45.2682 79.8445C45.467 80.1726 45.5665 80.5388 45.5665 80.9432C45.5665 81.3442 45.467 81.7105 45.2682 82.0419C45.0726 82.3733 44.8091 82.6385 44.4777 82.8374C44.1496 83.0329 43.7833 83.1307 43.379 83.1307ZM52.0491 83.1307C51.6481 83.1307 51.2818 83.0329 50.9504 82.8374C50.619 82.6385 50.3538 82.3733 50.1549 82.0419C49.9594 81.7105 49.8616 81.3442 49.8616 80.9432C49.8616 80.5388 49.9594 80.1726 50.1549 79.8445C50.3538 79.513 50.619 79.2495 50.9504 79.054C51.2818 78.8551 51.6481 78.7557 52.0491 78.7557C52.4535 78.7557 52.8197 78.8551 53.1478 79.054C53.4793 79.2495 53.7428 79.513 53.9383 79.8445C54.1372 80.1726 54.2366 80.5388 54.2366 80.9432C54.2366 81.3442 54.1372 81.7105 53.9383 82.0419C53.7428 82.3733 53.4793 82.6385 53.1478 82.8374C52.8197 83.0329 52.4535 83.1307 52.0491 83.1307ZM60.7193 83.1307C60.3182 83.1307 59.952 83.0329 59.6206 82.8374C59.2891 82.6385 59.024 82.3733 58.8251 82.0419C58.6296 81.7105 58.5318 81.3442 58.5318 80.9432C58.5318 80.5388 58.6296 80.1726 58.8251 79.8445C59.024 79.513 59.2891 79.2495 59.6206 79.054C59.952 78.8551 60.3182 78.7557 60.7193 78.7557C61.1236 78.7557 61.4899 78.8551 61.818 79.054C62.1494 79.2495 62.4129 79.513 62.6085 79.8445C62.8073 80.1726 62.9068 80.5388 62.9068 80.9432C62.9068 81.3442 62.8073 81.7105 62.6085 82.0419C62.4129 82.3733 62.1494 82.6385 61.818 82.8374C61.4899 83.0329 61.1236 83.1307 60.7193 83.1307ZM79.3196 83.1307C78.9185 83.1307 78.5523 83.0329 78.2209 82.8374C77.8894 82.6385 77.6243 82.3733 77.4254 82.0419C77.2299 81.7105 77.1321 81.3442 77.1321 80.9432C77.1321 80.5388 77.2299 80.1726 77.4254 79.8445C77.6243 79.513 77.8894 79.2495 78.2209 79.054C78.5523 78.8551 78.9185 78.7557 79.3196 78.7557C79.7239 78.7557 80.0902 78.8551 80.4183 79.054C80.7498 79.2495 81.0132 79.513 81.2088 79.8445C81.4077 80.1726 81.5071 80.5388 81.5071 80.9432C81.5071 81.3442 81.4077 81.7105 81.2088 82.0419C81.0132 82.3733 80.7498 82.6385 80.4183 82.8374C80.0902 83.0329 79.7239 83.1307 79.3196 83.1307ZM87.9897 83.1307C87.5887 83.1307 87.2225 83.0329 86.891 82.8374C86.5596 82.6385 86.2944 82.3733 86.0956 82.0419C85.9 81.7105 85.8022 81.3442 85.8022 80.9432C85.8022 80.5388 85.9 80.1726 86.0956 79.8445C86.2944 79.513 86.5596 79.2495 86.891 79.054C87.2225 78.8551 87.5887 78.7557 87.9897 78.7557C88.3941 78.7557 88.7603 78.8551 89.0885 79.054C89.4199 79.2495 89.6834 79.513 89.8789 79.8445C90.0778 80.1726 90.1772 80.5388 90.1772 80.9432C90.1772 81.3442 90.0778 81.7105 89.8789 82.0419C89.6834 82.3733 89.4199 82.6385 89.0885 82.8374C88.7603 83.0329 88.3941 83.1307 87.9897 83.1307ZM96.6599 83.1307C96.2589 83.1307 95.8926 83.0329 95.5612 82.8374C95.2297 82.6385 94.9646 82.3733 94.7657 82.0419C94.5702 81.7105 94.4724 81.3442 94.4724 80.9432C94.4724 80.5388 94.5702 80.1726 94.7657 79.8445C94.9646 79.513 95.2297 79.2495 95.5612 79.054C95.8926 78.8551 96.2589 78.7557 96.6599 78.7557C97.0643 78.7557 97.4305 78.8551 97.7586 79.054C98.0901 79.2495 98.3536 79.513 98.5491 79.8445C98.748 80.1726 98.8474 80.5388 98.8474 80.9432C98.8474 81.3442 98.748 81.7105 98.5491 82.0419C98.3536 82.3733 98.0901 82.6385 97.7586 82.8374C97.4305 83.0329 97.0643 83.1307 96.6599 83.1307ZM105.33 83.1307C104.929 83.1307 104.563 83.0329 104.231 82.8374C103.9 82.6385 103.635 82.3733 103.436 82.0419C103.24 81.7105 103.143 81.3442 103.143 80.9432C103.143 80.5388 103.24 80.1726 103.436 79.8445C103.635 79.513 103.9 79.2495 104.231 79.054C104.563 78.8551 104.929 78.7557 105.33 78.7557C105.734 78.7557 106.101 78.8551 106.429 79.054C106.76 79.2495 107.024 79.513 107.219 79.8445C107.418 80.1726 107.518 80.5388 107.518 80.9432C107.518 81.3442 107.418 81.7105 107.219 82.0419C107.024 82.3733 106.76 82.6385 106.429 82.8374C106.101 83.0329 105.734 83.1307 105.33 83.1307ZM123.93 82.0966C123.529 82.0966 123.163 81.9988 122.832 81.8033C122.5 81.6044 122.235 81.3393 122.036 81.0078C121.841 80.6764 121.743 80.3101 121.743 79.9091C121.743 79.5047 121.841 79.1385 122.036 78.8104C122.235 78.4789 122.5 78.2154 122.832 78.0199C123.163 77.821 123.529 77.7216 123.93 77.7216C124.335 77.7216 124.701 77.821 125.029 78.0199C125.361 78.2154 125.624 78.4789 125.82 78.8104C126.018 79.1385 126.118 79.5047 126.118 79.9091C126.118 80.3101 126.018 80.6764 125.82 81.0078C125.624 81.3393 125.361 81.6044 125.029 81.8033C124.701 81.9988 124.335 82.0966 123.93 82.0966ZM132.601 82.0966C132.199 82.0966 131.833 81.9988 131.502 81.8033C131.17 81.6044 130.905 81.3393 130.706 81.0078C130.511 80.6764 130.413 80.3101 130.413 79.9091C130.413 79.5047 130.511 79.1385 130.706 78.8104C130.905 78.4789 131.17 78.2154 131.502 78.0199C131.833 77.821 132.199 77.7216 132.601 77.7216C133.005 77.7216 133.371 77.821 133.699 78.0199C134.031 78.2154 134.294 78.4789 134.49 78.8104C134.689 79.1385 134.788 79.5047 134.788 79.9091C134.788 80.3101 134.689 80.6764 134.49 81.0078C134.294 81.3393 134.031 81.6044 133.699 81.8033C133.371 81.9988 133.005 82.0966 132.601 82.0966ZM141.271 82.0966C140.87 82.0966 140.503 81.9988 140.172 81.8033C139.841 81.6044 139.575 81.3393 139.377 81.0078C139.181 80.6764 139.083 80.3101 139.083 79.9091C139.083 79.5047 139.181 79.1385 139.377 78.8104C139.575 78.4789 139.841 78.2154 140.172 78.0199C140.503 77.821 140.87 77.7216 141.271 77.7216C141.675 77.7216 142.041 77.821 142.369 78.0199C142.701 78.2154 142.964 78.4789 143.16 78.8104C143.359 79.1385 143.458 79.5047 143.458 79.9091C143.458 80.3101 143.359 80.6764 143.16 81.0078C142.964 81.3393 142.701 81.6044 142.369 81.8033C142.041 81.9988 141.675 82.0966 141.271 82.0966ZM149.941 82.0966C149.54 82.0966 149.174 81.9988 148.842 81.8033C148.511 81.6044 148.246 81.3393 148.047 81.0078C147.851 80.6764 147.753 80.3101 147.753 79.9091C147.753 79.5047 147.851 79.1385 148.047 78.8104C148.246 78.4789 148.511 78.2154 148.842 78.0199C149.174 77.821 149.54 77.7216 149.941 77.7216C150.345 77.7216 150.711 77.821 151.04 78.0199C151.371 78.2154 151.634 78.4789 151.83 78.8104C152.029 79.1385 152.128 79.5047 152.128 79.9091C152.128 80.3101 152.029 80.6764 151.83 81.0078C151.634 81.3393 151.371 81.6044 151.04 81.8033C150.711 81.9988 150.345 82.0966 149.941 82.0966ZM164.71 74.8182V85H163.168V76.3594H163.109L160.673 77.9503V76.4787L163.213 74.8182H164.71ZM172.085 85.1392C171.462 85.1392 170.901 85.0199 170.404 84.7812C169.91 84.5393 169.516 84.2079 169.221 83.7869C168.926 83.366 168.769 82.8854 168.749 82.3452H170.24C170.277 82.7827 170.471 83.1423 170.822 83.424C171.173 83.7057 171.594 83.8466 172.085 83.8466C172.476 83.8466 172.822 83.7571 173.124 83.5781C173.429 83.3958 173.667 83.1456 173.84 82.8274C174.015 82.5092 174.103 82.1463 174.103 81.7386C174.103 81.3243 174.014 80.9548 173.835 80.63C173.656 80.3052 173.409 80.05 173.094 79.8643C172.782 79.6787 172.424 79.5843 172.02 79.581C171.712 79.581 171.402 79.634 171.09 79.7401C170.779 79.8461 170.527 79.9853 170.335 80.1577L168.928 79.9489L169.499 74.8182H175.097V76.1357H170.777L170.454 78.9844H170.514C170.712 78.7921 170.976 78.6314 171.304 78.5021C171.636 78.3729 171.99 78.3082 172.368 78.3082C172.988 78.3082 173.54 78.4557 174.024 78.7507C174.511 79.0457 174.894 79.4484 175.172 79.9588C175.454 80.4659 175.593 81.0492 175.59 81.7088C175.593 82.3684 175.444 82.9567 175.142 83.4737C174.844 83.9908 174.43 84.3984 173.899 84.6967C173.372 84.9917 172.767 85.1392 172.085 85.1392ZM182.22 85.1392C181.766 85.1326 181.319 85.0497 180.878 84.8906C180.44 84.7315 180.043 84.4664 179.685 84.0952C179.327 83.724 179.04 83.2251 178.825 82.5987C178.612 81.9723 178.506 81.1901 178.506 80.2521C178.506 79.3639 178.594 78.575 178.77 77.8857C178.949 77.1963 179.206 76.6146 179.54 76.1406C179.875 75.6634 180.28 75.3004 180.754 75.0518C181.228 74.8033 181.759 74.679 182.349 74.679C182.956 74.679 183.495 74.7983 183.965 75.0369C184.436 75.2756 184.817 75.6054 185.109 76.0263C185.404 76.4472 185.591 76.9261 185.67 77.4631H184.154C184.051 77.0388 183.848 76.6925 183.543 76.424C183.238 76.1555 182.84 76.0213 182.349 76.0213C181.604 76.0213 181.022 76.3461 180.604 76.9957C180.19 77.6454 179.981 78.5485 179.978 79.7053H180.053C180.228 79.4169 180.444 79.1716 180.699 78.9695C180.957 78.764 181.246 78.6065 181.564 78.4972C181.885 78.3845 182.224 78.3281 182.578 78.3281C183.168 78.3281 183.702 78.4723 184.179 78.7607C184.66 79.0457 185.042 79.4401 185.327 79.9439C185.612 80.4477 185.755 81.0244 185.755 81.674C185.755 82.3236 185.607 82.9119 185.313 83.4389C185.021 83.9659 184.61 84.3835 184.08 84.6918C183.549 84.9967 182.929 85.1458 182.22 85.1392ZM182.215 83.8466C182.606 83.8466 182.956 83.7505 183.264 83.5582C183.572 83.366 183.816 83.1075 183.995 82.7827C184.174 82.4579 184.264 82.0949 184.264 81.6939C184.264 81.3028 184.176 80.9465 184 80.625C183.828 80.3035 183.589 80.0483 183.284 79.8594C182.982 79.6705 182.638 79.576 182.25 79.576C181.955 79.576 181.682 79.6323 181.43 79.745C181.181 79.8577 180.962 80.0135 180.773 80.2124C180.585 80.4112 180.435 80.6399 180.326 80.8984C180.22 81.1536 180.167 81.4238 180.167 81.7088C180.167 82.09 180.255 82.4429 180.43 82.7678C180.609 83.0926 180.853 83.3544 181.161 83.5533C181.473 83.7488 181.824 83.8466 182.215 83.8466ZM192.381 85.1392C191.927 85.1326 191.479 85.0497 191.038 84.8906C190.601 84.7315 190.203 84.4664 189.845 84.0952C189.487 83.724 189.2 83.2251 188.985 82.5987C188.773 81.9723 188.667 81.1901 188.667 80.2521C188.667 79.3639 188.755 78.575 188.93 77.8857C189.109 77.1963 189.366 76.6146 189.701 76.1406C190.036 75.6634 190.44 75.3004 190.914 75.0518C191.388 74.8033 191.92 74.679 192.51 74.679C193.116 74.679 193.655 74.7983 194.126 75.0369C194.596 75.2756 194.977 75.6054 195.269 76.0263C195.564 76.4472 195.751 76.9261 195.831 77.4631H194.315C194.212 77.0388 194.008 76.6925 193.703 76.424C193.398 76.1555 193 76.0213 192.51 76.0213C191.764 76.0213 191.182 76.3461 190.765 76.9957C190.351 77.6454 190.142 78.5485 190.138 79.7053H190.213C190.389 79.4169 190.604 79.1716 190.859 78.9695C191.118 78.764 191.406 78.6065 191.724 78.4972C192.046 78.3845 192.384 78.3281 192.739 78.3281C193.328 78.3281 193.862 78.4723 194.339 78.7607C194.82 79.0457 195.203 79.4401 195.488 79.9439C195.773 80.4477 195.915 81.0244 195.915 81.674C195.915 82.3236 195.768 82.9119 195.473 83.4389C195.181 83.9659 194.77 84.3835 194.24 84.6918C193.71 84.9967 193.09 85.1458 192.381 85.1392ZM192.376 83.8466C192.767 83.8466 193.116 83.7505 193.425 83.5582C193.733 83.366 193.976 83.1075 194.155 82.7827C194.334 82.4579 194.424 82.0949 194.424 81.6939C194.424 81.3028 194.336 80.9465 194.16 80.625C193.988 80.3035 193.749 80.0483 193.444 79.8594C193.143 79.6705 192.798 79.576 192.41 79.576C192.115 79.576 191.842 79.6323 191.59 79.745C191.342 79.8577 191.123 80.0135 190.934 80.2124C190.745 80.4112 190.596 80.6399 190.486 80.8984C190.38 81.1536 190.327 81.4238 190.327 81.7088C190.327 82.09 190.415 82.4429 190.591 82.7678C190.77 83.0926 191.013 83.3544 191.322 83.5533C191.633 83.7488 191.985 83.8466 192.376 83.8466Z" fill="white"/>
</svg>
