<svg width="24" height="24" viewBox="0 0 24 24" fill="none" xmlns="http://www.w3.org/2000/svg">
<path d="M13 8.5H9C7.067 8.5 5.5 6.933 5.5 5C5.5 3.067 7.067 1.5 9 1.5H13V8.5Z" fill="#E64A19"/>
<path d="M12.5 15.5H9C7.067 15.5 5.5 13.933 5.5 12C5.5 10.067 7.067 8.5 9 8.5H12.5V15.5Z" fill="#7C4DFF"/>
<path d="M9 22.5C7.067 22.5 5.5 20.933 5.5 19C5.5 17.067 7.067 15.5 9 15.5H12.5V19C12.5 20.933 10.933 22.5 9 22.5Z" fill="#66BB6A"/>
<path d="M16 8.5H12.5V1.5H16C17.933 1.5 19.5 3.067 19.5 5C19.5 6.933 17.933 8.5 16 8.5Z" fill="#FF7043"/>
<path d="M16 15.5C17.933 15.5 19.5 13.933 19.5 12C19.5 10.067 17.933 8.5 16 8.5C14.067 8.5 12.5 10.067 12.5 12C12.5 13.933 14.067 15.5 16 15.5Z" fill="#29B6F6"/>
</svg>
