<svg width="24" height="24" viewBox="0 0 24 24" fill="none" xmlns="http://www.w3.org/2000/svg">
<g clip-path="url(#clip0_797_6657)">
<path d="M11.9993 15.9189L8.08041 12L11.9993 8.08114V0L0.807269 11.192C0.593017 11.4063 0.472656 11.697 0.472656 12C0.472656 12.303 0.593017 12.5937 0.807269 12.808L11.9993 24C11.9993 24 13.7136 22.8571 13.7136 20C13.6249 18.4838 13.0199 17.0436 11.9993 15.9189V15.9189Z" fill="#2684FF"/>
<path d="M8.69226 11.2383L8.76712 11.3131L11.9991 8.08114V0L5.94141 6.05714C6.39689 7.99226 7.34444 9.77694 8.69226 11.2383V11.2383Z" fill="#1D78F2"/>
<path d="M9.51988 10.4486L9.57702 10.5057L12.001 8.08171V0L6.93359 5.06629C7.25134 7.07453 8.15046 8.94568 9.51988 10.4486V10.4486Z" fill="#126AE5"/>
<path d="M12 8.08114V0L8 4C8.08757 6.12298 8.93318 8.14425 10.3834 9.69714L12 8.08114Z" fill="#0B60DA"/>
<path d="M9.14063 4C9.14063 6.712 11.0875 8.78343 11.1892 8.88914L11.9978 8.08114V0L9.24235 2.75543C9.174 3.16675 9.13998 3.58304 9.14063 4V4Z" fill="#0154CE"/>
<path d="M11.9994 8.08114L15.9177 12L11.9994 15.9189V24L23.1909 12.808C23.4051 12.5937 23.5255 12.303 23.5255 12C23.5255 11.697 23.4051 11.4063 23.1909 11.192L11.9994 0C11.9994 0 10.2852 1.14286 10.2852 4C10.3738 5.51621 10.9788 6.95641 11.9994 8.08114V8.08114Z" fill="#2482FD"/>
<path d="M15.3063 12.7614L15.2314 12.6865L12 15.9185V23.9997L18.0571 17.9425C17.6017 16.0074 16.6541 14.2227 15.3063 12.7614V12.7614Z" fill="#1D78F2"/>
<path d="M14.4806 13.5513L14.4234 13.4941L12 15.9181V23.9999L17.0663 18.9336C16.7485 16.9255 15.8496 15.0544 14.4806 13.5513V13.5513Z" fill="#126AE5"/>
<path d="M12 15.9187V23.9999L16 19.9999C15.9123 17.8768 15.0665 15.8555 13.616 14.3027L12 15.9187Z" fill="#0B60DA"/>
<path d="M14.8571 20.0005C14.8571 17.2885 12.9103 15.217 12.808 15.1113L12 15.9193V24.0005L14.7554 21.245C14.8235 20.8337 14.8575 20.4174 14.8571 20.0005V20.0005Z" fill="#0154CE"/>
<path d="M12.0006 15.9189L8.0817 12H1.71484V13.7143L12.0006 24C12.0006 24 13.7148 22.8571 13.7148 20C13.6262 18.4838 13.0212 17.0436 12.0006 15.9189V15.9189Z" fill="#2684FF"/>
</g>
<defs>
<clipPath id="clip0_797_6657">
<rect width="24" height="24" fill="white"/>
</clipPath>
</defs>
</svg>
