<svg width="24" height="24" viewBox="0 0 24 24" fill="none" xmlns="http://www.w3.org/2000/svg">
<path opacity="0.4" d="M2 6.447C2 3.996 4.03024 2 6.52453 2H11.4856C13.9748 2 16 3.99 16 6.437V17.553C16 20.005 13.9698 22 11.4744 22H6.51537C4.02515 22 2 20.01 2 17.563V16.623V6.447Z" fill="#757B8C"/>
<path d="M21.7773 11.455L18.9315 8.54604C18.6373 8.24604 18.164 8.24604 17.8709 8.54804C17.5787 8.85004 17.5797 9.33704 17.8728 9.63704L19.4321 11.23H17.9371H9.54679C9.13288 11.23 8.79688 11.575 8.79688 12C8.79688 12.426 9.13288 12.77 9.54679 12.77H19.4321L17.8728 14.363C17.5797 14.663 17.5787 15.15 17.8709 15.452C18.0179 15.603 18.2098 15.679 18.4026 15.679C18.5935 15.679 18.7854 15.603 18.9315 15.454L21.7773 12.546C21.9185 12.401 21.9983 12.205 21.9983 12C21.9983 11.796 21.9185 11.6 21.7773 11.455" fill="#757B8C"/>
</svg>
